<svg height='300px' width='300px'  fill="#000000" xmlns="http://www.w3.org/2000/svg" viewBox="0 0 64 64" x="0px" y="0px"><title>Essential Icon</title><g data-name="11. FAQs"><path d="M57,33A14.9745,14.9745,0,0,0,35.87592,19.321,14.99348,14.99348,0,1,0,12.72168,36.76807,14.00413,14.00413,0,0,1,9.293,44.293,1.0001,1.0001,0,0,0,10,46a1.01843,1.01843,0,0,0,.127-.00781c.27539-.03565,6.6045-.89942,10.34864-6.08252A13.49108,13.49108,0,0,0,22,40a14.89359,14.89359,0,0,0,6.12415-1.321A15.01744,15.01744,0,0,0,42,48a13.51724,13.51724,0,0,0,1.52441-.09033c3.74414,5.1831,10.07325,6.04687,10.34864,6.08252A1.01843,1.01843,0,0,0,54,54a1.0001,1.0001,0,0,0,.707-1.707,14.00413,14.00413,0,0,1-3.42871-7.5249A15.04563,15.04563,0,0,0,57,33ZM49.61133,43.522a1.001,1.001,0,0,0-.40332.9502,18.92574,18.92574,0,0,0,2.23144,6.812,13.22093,13.22093,0,0,1-6.59863-4.98975.99958.99958,0,0,0-.98047-.44384A12.99164,12.99164,0,1,1,55,33,13.04294,13.04294,0,0,1,49.61133,43.522ZM19.15918,38.29443a13.22093,13.22093,0,0,1-6.59863,4.98975,18.92574,18.92574,0,0,0,2.23144-6.812,1.001,1.001,0,0,0-.40332-.9502A12.99036,12.99036,0,1,1,34.0976,20.27417a14.86892,14.86892,0,0,0-6.60047,16.48944,12.5278,12.5278,0,0,1-7.35748,1.087A.9984.9984,0,0,0,19.15918,38.29443Z"></path><path d="M36,29H48a1,1,0,0,0,0-2H36a1,1,0,0,0,0,2Z"></path><path d="M50,32H34a1,1,0,0,0,0,2H50a1,1,0,0,0,0-2Z"></path><path d="M48,37H36a1,1,0,0,0,0,2H48a1,1,0,0,0,0-2Z"></path><circle cx="22" cy="32" r="1"></circle><path d="M20,22a2.00236,2.00236,0,0,1,2.37109-1.96729,2.00052,2.00052,0,0,1,.79786,3.58985A4.9571,4.9571,0,0,0,21,27.62305V29a1,1,0,0,0,2,0v-1.377a2.98454,2.98454,0,0,1,1.33984-2.3794A3.99991,3.99991,0,1,0,18,22a1,1,0,0,0,2,0Z"></path></g></svg>