<svg height="300px" width="300px" fill="rgba(255, 255, 255, 0.8)" xmlns="http://www.w3.org/2000/svg" viewBox="0 0 64 64" x="0px" y="0px">
    <path d="M61.934,21.674a.948.948,0,0,0-.033-.094,1.013,1.013,0,0,0-.191-.284l0,0-8-8A1,1,0,0,0,53,13H44.351L39.625,9.219A1,1,0,0,0,39,9V6a1,1,0,0,0-1-1H34a1,1,0,0,0-1,1V9H23a1,1,0,0,0-.318.054c-.025.008-.047.025-.072.036a1.018,1.018,0,0,0-.21.115c-.008.006-.017.008-.025.014l-10,8A1,1,0,0,0,12,18v4.382L6.553,25.105A1,1,0,0,0,6,26v7.9L3.02,48.8A1,1,0,0,0,4,50H6v2H4a1,1,0,0,0-.98,1.2l1,5A1,1,0,0,0,5,59H9a1,1,0,0,0,.98-.8l.02-.1.02.1A1,1,0,0,0,11,59H61a1,1,0,0,0,1-1V22c0-.022-.011-.04-.012-.062A.992.992,0,0,0,61.934,21.674ZM35,7h2V9H35Zm-1,4h4.649l7.5,6h-12.8l-7.5-6ZM13,39.1,14.78,48H11.22ZM8,26.618l4-2v1.764l-4,2Zm0,4,4-2V33.9l-2,10-2-10ZM5.22,48,7,39.1,8.78,48Zm2.96,9H5.82l-.6-3H8.78ZM10,52H8V50h4v2Zm4.18,5H11.82l-.6-3h3.56ZM14,52V50h2a1,1,0,0,0,.98-1.2L16.6,46.916A.994.994,0,0,0,17,47h4a1,1,0,0,0,1-1V41a3,3,0,0,0-6,0v2.9l-2-10V18.48l9-7.2,9,7.2V53H16.976a.977.977,0,0,0-.2-.634A1,1,0,0,0,16,52Zm4-7V41a1,1,0,0,1,2,0v4ZM39,57H16.22l.4-2H39Zm-1-4V51h6v2H38Zm1-4V42a2,2,0,0,1,4,0v7Zm9,8H41V55h7Zm0-35V53H46V50a1,1,0,0,0-1-1V42a4,4,0,0,0-8,0v7a1,1,0,0,0-1,1v3H34V19H48Zm1.931-4.341a1.034,1.034,0,0,0-.049-.107.954.954,0,0,0-.133-.2.866.866,0,0,0-.081-.09c-.016-.014-.026-.033-.043-.047L46.851,15h5.735l6,6H50V18c0-.017-.009-.031-.01-.048A.979.979,0,0,0,49.931,17.659ZM60,57H50V55H60Zm0-4H50V23H60Z"></path>
    <path d="M22,24a3,3,0,0,0-6,0v5a1,1,0,0,0,1,1h4a1,1,0,0,0,1-1Zm-2,4H18V24a1,1,0,0,1,2,0Z"></path>
    <path d="M25,30h4a1,1,0,0,0,1-1V24a3,3,0,0,0-6,0v5A1,1,0,0,0,25,30Zm1-6a1,1,0,0,1,2,0v4H26Z"></path>
    <path d="M25,47h4a1,1,0,0,0,1-1V41a3,3,0,0,0-6,0v5A1,1,0,0,0,25,47Zm1-6a1,1,0,0,1,2,0v4H26Z"></path>
    <path d="M39,31h4a1,1,0,0,0,1-1V25a3,3,0,0,0-6,0v5A1,1,0,0,0,39,31Zm1-6a1,1,0,0,1,2,0v4H40Z"></path>
    <path d="M53,34h4a1,1,0,0,0,1-1V28a3,3,0,0,0-6,0v5A1,1,0,0,0,53,34Zm1-6a1,1,0,0,1,2,0v4H54Z"></path>
    <path d="M53,47h4a1,1,0,0,0,1-1V41a3,3,0,0,0-6,0v5A1,1,0,0,0,53,47Zm1-6a1,1,0,0,1,2,0v4H54Z"></path>
</svg>