<svg height="300px" width="300px" fill="rgba(255, 255, 255, 0.8)" xmlns="http://www.w3.org/2000/svg" viewBox="0 0 64 64" x="0px" y="0px">
    <path d="M61,53H58V28.576A5,5,0,0,0,61,24V22a.951.951,0,0,0-.028-.141c-.005-.034.006-.068,0-.1L58,9.878V6a1,1,0,0,0-1-1H7A1,1,0,0,0,6,6V9.878L3.03,21.757c-.008.034,0,.068,0,.1A.951.951,0,0,0,3,22v2a5,5,0,0,0,3,4.576V53H3a1,1,0,0,0-1,1v4a1,1,0,0,0,1,1H61a1,1,0,0,0,1-1V54A1,1,0,0,0,61,53ZM59,24a3,3,0,0,1-6,0V23h6Zm-6,8H43a1,1,0,0,0-1,1V53H8V29a4.982,4.982,0,0,0,4-2.031,4.954,4.954,0,0,0,8,0,4.954,4.954,0,0,0,8,0,4.954,4.954,0,0,0,8,0,4.954,4.954,0,0,0,8,0,4.954,4.954,0,0,0,8,0A4.982,4.982,0,0,0,56,29V53H54V33A1,1,0,0,0,53,32Zm-1,2V53H44V34ZM19,23v1a3,3,0,0,1-6,0V23Zm-5.913-2,.833-10H19V21ZM27,23v1a3,3,0,0,1-6,0V23Zm-6-2V11h6V21Zm14,2v1a3,3,0,0,1-6,0V23Zm-6-2V11h6V21Zm14,2v1a3,3,0,0,1-6,0V23Zm-6-2V11h6V21Zm14,2v1a3,3,0,0,1-6,0V23Zm-6-2V11h5.08l.833,10Zm13.719,0h-5.8l-.833-10h4.132ZM8,7H56V9H8Zm-.219,4h4.132L11.08,21h-5.8ZM5,24V23h6v1a3,3,0,0,1-6,0ZM60,57H4V55H60Z"></path>
    <path d="M39,32H11a1,1,0,0,0-1,1V49a1,1,0,0,0,1,1H39a1,1,0,0,0,1-1V33A1,1,0,0,0,39,32ZM38,48H12V34H38Z"></path>
    <rect x="20.654" y="39.75" width="9.192" height="2" transform="translate(-21.419 29.79) rotate(-45)"></rect>
    <rect x="20.379" y="37.5" width="4.243" height="2" transform="translate(-20.634 27.186) rotate(-45)"></rect>
    <rect x="26.379" y="41.5" width="4.243" height="2" transform="translate(-21.705 32.601) rotate(-45)"></rect>
    <rect x="48" y="41" width="2" height="4"></rect>
</svg>